<?xml version="1.0" encoding="UTF-8"?>
<svg id="לוגו" data-name="Layer 1" xmlns="http://www.w3.org/2000/svg" version="1.1" viewBox="0 0 100 36.5">
  <defs>
    <style>
      .cls-1 {
        fill: #000;
        stroke-width: 0px;
      }
    </style>
  </defs>
  <polygon class="cls-1" points="75.6 22.4 76.3 18.8 70.8 12.2 77.8 7 76.3 4.7 69.1 10.2 63.5 3.6 61 5.7 73.4 19.4 73.2 20.4 60.2 23.1 58.2 25.4 60.2 27.4 61.7 25.5 75.6 22.4"/>
  <path class="cls-1" d="M80.9,9l2.2,2.2h9.8c0-.1.5,7.7.5,7.7l-12.8,3.3-2.6,2.4,1.9,2.1,2-1.9s17.8-4.9,17.9-4.8c0,.1,0-2.8,0-2.8l-4,1-.8-12.8-1.9-.8-2.2,3.9h-5.7c0,.1-1.7-1.9-1.7-1.9l-2.7,2.4Z"/>
  <polygon class="cls-1" points="43.1 0 41.7 2.5 43.7 4.3 44.7 11.8 54.3 12.4 52 21.5 49.3 25.5 51.4 27.4 54.1 24.1 58.2 8.5 56 7.1 53.1 9.5 47 9 45.7 1.4 43.1 0"/>
  <polygon class="cls-1" points="17.7 6.8 18.8 3.8 22.1 4.5 22.4 11.8 35.3 17 35.9 9.6 33.3 8.7 33.4 7.2 40.7 7.1 40.3 9.2 37.9 10.8 37.3 17.9 42.9 20.2 42 22.8 22.5 15.1 23.3 32.5 20.5 32.1 19.5 7.9 17.7 6.8"/>
  <polygon class="cls-1" points="0 2.4 1.7 4.7 1.5 13.4 12.8 14.9 10.7 23.1 8.2 25.6 9.7 27.8 12.5 26 16.4 11.7 14.7 9.3 12.4 11.8 4.2 10.8 4.5 3 2.6 .2 0 2.4"/>
  <rect class="cls-1" x="27.1" y="26.5" width="1.8" height="1.8" transform="translate(-11.2 27.8) rotate(-45)"/>
  <rect class="cls-1" x="31.6" y="26.5" width="1.8" height="1.8" transform="translate(-9.8 31) rotate(-45)"/>
  <rect class="cls-1" x="50.5" y="30.6" width="1.8" height="1.8" transform="translate(-7.2 45.6) rotate(-45)"/>
  <rect class="cls-1" x="86.5" y="27.7" width="1.8" height="1.8" transform="translate(5.3 70.1) rotate(-45)"/>
  <polygon class="cls-1" points="71.1 28.4 70.1 26.7 66.2 27.4 67.2 29.1 71.1 28.4"/>
  <rect class="cls-1" x="85.9" y="14.7" width="1.8" height="1.8" transform="translate(14.4 65.9) rotate(-45)"/>
  <rect class="cls-1" x="50.5" y="34.3" width="1.8" height="1.8" transform="translate(-9.9 46.7) rotate(-45)"/>
  <rect class="cls-1" x="86.5" y="31.4" width="1.8" height="1.8" transform="translate(2.7 71.2) rotate(-45)"/>
</svg>